<?xml version="1.0" encoding="UTF-8" standalone="no"?>
<!-- Created with Inkscape (http://www.inkscape.org/) -->

<svg
   width="512"
   height="512"
   viewBox="0 0 135.46666 135.46667"
   version="1.1"
   id="svg5"
   inkscape:version="1.1.2 (0a00cf5339, 2022-02-04, custom)"
   sodipodi:docname="logo.svg"
   xmlns:inkscape="http://www.inkscape.org/namespaces/inkscape"
   xmlns:sodipodi="http://sodipodi.sourceforge.net/DTD/sodipodi-0.dtd"
   xmlns="http://www.w3.org/2000/svg"
   xmlns:svg="http://www.w3.org/2000/svg">
  <sodipodi:namedview
     id="namedview7"
     pagecolor="#ffffff"
     bordercolor="#666666"
     borderopacity="1.0"
     inkscape:pageshadow="2"
     inkscape:pageopacity="0.0"
     inkscape:pagecheckerboard="0"
     inkscape:document-units="mm"
     showgrid="false"
     units="px"
     inkscape:zoom="0.733172"
     inkscape:cx="396.22353"
     inkscape:cy="561.94181"
     inkscape:window-width="1920"
     inkscape:window-height="1009"
     inkscape:window-x="-8"
     inkscape:window-y="-8"
     inkscape:window-maximized="1"
     inkscape:current-layer="layer1" />
  <defs
     id="defs2" />
  <g
     inkscape:label="Ebene 1"
     inkscape:groupmode="layer"
     id="layer1">
    <path
       style="fill:#000000;stroke-width:0.264583"
       d="m 64.396164,135.15322 c -1.95032,-0.35242 -4.91646,-1.47392 -6.76753,-2.5588 -3.33803,-1.95636 -6.78769,-5.9201 -8.1872,-9.40726 -1.3543,-3.37454 -1.35275,-3.35823 -1.5552,-16.33901 -0.20542,-13.171404 -0.24089,-13.540374 -1.74205,-18.123964 -0.93856,-2.86576 -3.04451,-6.91309 -4.870154,-9.3597 -0.82794,-1.10956 -2.95544,-3.54974 -4.72778,-5.42261 C 29.62089,66.623666 25.71613,58.623329 24.45809,49.174807 22.0299,30.937999 31.5798,12.928017 48.021874,4.7363036 c 3.97904,-1.982424 6.97771,-3.021716 11.16454,-3.86945403 17.51584,-3.54655697 35.42817,3.98590203 45.175386,18.99707143 8.33218,12.831954 9.29524,29.258837 2.51337,42.870612 -2.35825,4.733213 -4.12416,7.177413 -8.757736,12.121623 -1.62803,1.73717 -3.52402,3.93205 -4.21331,4.87753 -1.56004,2.13986 -3.66894,6.24017 -4.55601,8.85821 -1.50374,4.438 -1.56147,5.04083 -1.74826,18.256254 l -0.17389,12.30312 -0.82762,2.39422 c -1.09851,3.17783 -2.39676,5.32798 -4.64807,7.69802 -3.59247,3.78193 -8.21395,5.87168 -13.39002,6.05474 -1.54621,0.0547 -3.42005,-0.0106 -4.16409,-0.14503 z m 5.95342,-7.94818 c 3.12545,-0.72053 6.64847,-3.4432 7.94115,-6.13711 1.20702,-2.51539 1.34238,-3.61969 1.34571,-10.97864 l 0.003,-6.94531 h -11.90621 -11.90625 l 0.006,6.94531 c 0.004,3.81992 0.12691,7.46779 0.27413,8.10636 0.96941,4.205 4.37912,7.69022 8.71523,8.90823 1.46683,0.41203 3.97877,0.45801 5.52667,0.10116 z m 9.91845,-34.842834 c 0.91171,-5.39863 3.28642,-11.39169 6.31659,-15.94115 1.79213,-2.69068 2.743,-3.8358 6.20233,-7.46933 5.57697,-5.857823 8.609466,-11.487621 10.059966,-18.676205 0.70053,-3.471788 0.62983,-10.416537 -0.14253,-14.000662 C 101.16762,29.143516 98.038394,23.355625 93.010404,18.344625 83.730344,9.0959246 70.295654,5.7043916 57.464594,9.3712276 54.358544,10.25887 49.284404,12.776734 46.555974,14.784255 39.24021,20.167027 34.48411,27.718497 32.62743,36.899189 c -0.63865,3.157955 -0.63277,10.711113 0.0106,13.592703 1.17758,5.274397 3.28707,10.06598 6.117,13.894451 0.85898,1.162063 2.81917,3.425823 4.355984,5.030583 5.30206,5.53646 8.42858,10.5004 10.46746,16.61906 0.8604,2.58207 1.98404,7.46205 1.98404,8.61674 v 0.55375 h 12.11261 12.1126 z m -16.50345,-24.93698 v -3.968753 h 3.96875 3.96875 v 3.968753 3.96875 h -3.96875 -3.96875 z m 0.0679,-15.544271 c 0.20851,-5.587955 1.28375,-8.092821 5.11958,-11.926546 1.85099,-1.849967 2.51159,-2.694421 2.63897,-3.373437 0.54382,-2.898786 -1.8519,-5.341805 -4.6831,-4.775565 -2.24472,0.448945 -3.14337,2.001639 -3.14337,5.43116 v 2.407409 h -3.96875 -3.96875 v -2.500519 c 0,-3.194714 0.35788,-4.864303 1.52191,-7.100003 2.26047,-4.341591 7.42395,-6.889839 12.27513,-6.057953 6.46597,1.10879 10.88695,7.235719 9.79899,13.580184 -0.48906,2.851983 -1.83122,5.181496 -4.21991,7.324288 -2.83514,2.543265 -3.31876,3.59697 -3.4516,7.520148 l -0.10526,3.108854 h -3.97479 -3.9748 z M 7.07598,72.517056 l -2.84061,-2.84944 5.82016,-5.815653 5.82016,-5.815652 2.84278,2.842772 2.84277,2.84277 -5.82233,5.822323 -5.82232,5.82233 z m 112.64647,-2.97665 -5.81556,-5.820063 2.84199,-2.84199 2.84199,-2.841989 5.68893,5.684309 c 3.12891,3.126373 5.68892,5.806543 5.68892,5.955933 0,0.14939 -1.22191,1.48937 -2.71536,2.97774 l -2.71536,2.70612 z M 0,43.612726 v -3.96875 h 8.06979 8.06979 v 3.96875 3.96875 H 8.06979 0 Z m 119.32708,0 v -3.96875 h 8.06979 8.06979 v 3.96875 3.96875 h -8.06979 -8.06979 z M 9.92151,23.239452 4.10483,17.41826 6.9476,14.575489 l 2.84277,-2.842772 5.88385,5.883843 5.88384,5.883843 -2.77066,2.78012 c -1.52386,1.529067 -2.83333,2.78012 -2.90993,2.78012 -0.0766,0 -2.75678,-2.619536 -5.95596,-5.821191 z m 106.75774,3.041071 -2.77065,-2.78012 5.88384,-5.883843 5.88384,-5.883843 2.84277,2.842772 2.84277,2.842771 -5.81668,5.821192 c -3.19917,3.201655 -5.87935,5.821191 -5.95595,5.821191 -0.0766,0 -1.38607,-1.251053 -2.90994,-2.78012 z"
       id="path836" />
  </g>
</svg>
